<svg width="512" height="512" viewBox="0 0 512 512" fill="none" xmlns="http://www.w3.org/2000/svg">
<path d="M54.1846 32.0973C62.3804 31.7658 71.7989 31.9871 80.0664 31.9908L125.02 31.9926L263.537 31.9916L392.1 31.9903L433.84 31.9796C441.312 31.9763 448.787 31.9188 456.257 32.0543C463.05 32.1773 469.3 34.9723 473.86 40.0296C477.237 43.7863 479.325 48.5273 479.81 53.5563C480.182 57.3163 480.025 63.0791 480.025 66.9651L480.012 89.8321V163.113L480.02 270.457L480.022 305.785C480.022 312.372 480.187 320.012 479.86 326.53C476.4 318.82 469.292 312.16 464.28 305.665C463.792 305.035 464 292.727 464 290.925L464.015 253.11L464.005 140.629C464.002 120.611 463.792 100.144 464.06 80.1591C423.432 79.6653 382.015 80.0756 341.327 80.0848L306.692 80.0916C301.632 80.0878 294.93 79.7976 290.035 80.3618C288.02 80.5941 281.23 84.3938 278.87 85.5481L241.409 104.223C237.259 106.293 227.721 111.833 223.753 111.978C216.625 112.24 208.311 112.075 201.122 112.074L149.375 112.082L79.3449 112.082L59.6979 112.101C56.5349 112.12 50.9867 112.331 48.0217 111.969L48.0171 309.935L48.0174 375.405L47.9974 396.037C47.9927 400.037 47.9786 403.99 48.0786 407.992C47.9994 411.837 51.0746 415.555 55.0181 415.802C60.3189 416.132 65.9124 415.997 71.2542 415.995L103.6 415.99H220.932L257.405 415.98C262.202 415.977 271.85 415.715 276.362 416.152L276.707 416.187C277.945 420.072 280.84 428.657 282.935 431.977C265.857 432.415 247.5 432.105 230.329 432.105L134.971 432.102H81.0364L64.9476 432.13C55.9691 432.147 48.8796 432.775 41.3704 427C36.3671 423.215 33.0886 417.585 32.2669 411.365C31.7891 407.582 32.0014 399.985 32.0012 395.86L32.0109 367.315L32.0129 272.287L32.0099 126.06L31.9999 79.1473C31.9976 71.0853 31.7321 62.7563 32.1201 54.7311C32.7371 41.9703 41.9564 33.5203 54.1846 32.0973ZM126.13 83.7271C132.611 82.5296 136.891 76.3018 135.686 69.8223C134.482 63.3428 128.249 59.0696 121.771 60.2816C115.303 61.4916 111.038 67.7121 112.241 74.1813C113.444 80.6506 119.659 84.9226 126.13 83.7271ZM78.1299 83.7268C84.6106 82.5296 88.8909 76.3018 87.6861 69.8223C86.4816 63.3431 80.2489 59.0696 73.7709 60.2816C67.3032 61.4916 63.0381 67.7121 64.2409 74.1813C65.4436 80.6506 71.6594 84.9226 78.1299 83.7268ZM174.13 83.7268C180.611 82.5296 184.891 76.3018 183.686 69.8223C182.481 63.3431 176.249 59.0698 169.771 60.2816C163.303 61.4916 159.038 67.7123 160.241 74.1813C161.444 80.6506 167.659 84.9226 174.13 83.7268Z" fill="#8E0E22"></path>
<path d="M379.887 288.098C432.84 285.838 477.602 326.925 479.875 379.878C482.147 432.83 441.072 477.603 388.122 479.89C335.15 482.18 290.355 441.085 288.082 388.113C285.807 335.14 326.915 290.355 379.887 288.098ZM376.015 378.125L376.005 426.025C372.44 426.065 368.852 425.843 366.14 428.653C364.722 430.105 363.95 432.065 363.995 434.09C364.035 436.263 364.962 438.323 366.565 439.788C369.937 442.893 378.38 442.028 383.125 441.993C388.372 442.023 398.112 443.073 401.667 439.485C403.18 437.955 404 435.87 403.935 433.718C403.872 431.615 402.947 429.63 401.375 428.23C398.882 426.038 395.13 425.923 391.96 426.075C392.182 413.573 391.912 401 391.997 388.488C392.04 382.045 392.277 375.283 391.765 368.9C391.302 363.165 386.095 362.135 381.472 362.068C378.665 362.04 375.857 362.055 373.05 362.11C370.147 362.268 368.16 362.425 366.025 364.828C364.58 366.478 363.857 368.643 364.025 370.83C364.155 372.763 365.065 374.558 366.55 375.803C369.27 378.11 372.657 378.008 376.015 378.125ZM385.877 347.75C391.285 346.693 394.797 341.433 393.7 336.033C392.605 330.633 387.322 327.158 381.93 328.293C376.59 329.415 373.157 334.635 374.242 339.98C375.327 345.328 380.522 348.795 385.877 347.75Z" fill="#8E0E22"></path>
<path d="M270.77 142.571C275.25 142.099 286.947 142.414 291.845 142.421L332.18 142.43L401.955 142.426C413.872 142.424 425.832 142.366 437.755 142.449C439.66 142.462 441.26 142.55 442.995 143.421C447.782 145.825 447.312 150.38 447.327 154.929C447.337 157.098 447.33 159.312 447.327 161.496L447.307 184.53L447.317 221.078C447.32 227.371 447.37 233.667 447.272 239.959C447.2 244.829 444.767 247.195 440.262 248.42C436.747 248.871 425.002 248.609 420.897 248.604L381.867 248.597L309.77 248.602C297.945 248.603 286.12 248.63 274.292 248.607C271.357 248.612 269.082 248.261 266.7 246.396C262.865 243.396 263.987 234.888 263.997 230.336L264.02 209.129L264.01 171.255C264 164.481 263.915 157.692 264.052 150.922C264.15 146.172 266.3 143.691 270.77 142.571Z" fill="#8E0E22"></path>
<path d="M72.699 277.367L215.611 277.36L262.838 277.352C270.948 277.352 279.233 277.275 287.343 277.437C289.33 277.477 291.178 277.845 292.8 279.055C294.515 280.32 295.63 282.237 295.888 284.355C296.555 289.815 292.463 293.092 287.39 293.55C272.853 293.917 256.993 293.602 242.371 293.602H156.483H100.983L83.3268 293.62C78.563 293.625 70.2133 294.49 66.5938 291.307C65.06 289.977 64.134 288.08 64.0285 286.052C63.7128 280.405 67.5228 277.685 72.699 277.367Z" fill="#8E0E22"></path>
<path d="M72.6991 322.37L221.863 322.36L267.86 322.365C274.98 322.365 283.332 322.627 290.325 322.37C288.807 324.865 287.35 327.392 285.95 329.955C284.962 331.782 282.38 337.525 281.197 338.605C267.107 338.86 252.12 338.602 237.976 338.602H150.721L99.3276 338.605L82.6516 338.62C77.9801 338.625 70.1651 339.457 66.5936 336.317C65.0563 334.985 64.1293 333.082 64.0273 331.052C63.7181 325.405 67.5266 322.697 72.6991 322.37Z" fill="#8E0E22"></path>
<path d="M71.8916 367.357C77.9348 367.087 85.8978 367.305 92.0588 367.305H130.741L226.31 367.307C241.817 367.307 257.68 367.495 273.148 367.32C272.543 372.835 272.218 377.907 271.91 383.457C269.71 383.522 267.423 383.487 265.215 383.487L131.795 383.475L92.8828 383.49C86.1291 383.495 79.3976 383.515 72.6453 383.412C61.7741 383.247 60.6756 368.605 71.8916 367.357Z" fill="#8E0E22"></path>
<path d="M72.8378 232.37L171.805 232.354L205.058 232.356C210.955 232.356 216.992 232.287 222.883 232.436C224.981 232.488 227.036 232.726 228.736 234.001C230.467 235.31 231.601 237.259 231.883 239.411C232.618 244.84 228.375 248.165 223.331 248.563C213.223 248.847 201.899 248.601 191.717 248.601L131.22 248.602L92.7215 248.611C86.0663 248.612 79.4228 248.673 72.77 248.512C68.2495 248.403 64.3258 245.914 64.0163 241.055C63.883 238.809 64.653 236.603 66.1548 234.928C68.0363 232.819 70.231 232.55 72.8378 232.37Z" fill="#8E0E22"></path>
<path d="M70.6948 187.547C74.5486 187.263 79.9336 187.412 83.9006 187.412L106.523 187.413L140.229 187.42C146.102 187.42 152.004 187.389 157.874 187.437C159.426 187.564 161.866 187.516 163.278 188.161C167.603 190.16 169.167 195.279 166.891 199.417C165.582 201.796 163.507 202.753 161.055 203.472C157.903 203.861 152.217 203.708 148.893 203.71L127.657 203.717L92.1558 203.72C86.1886 203.719 80.2813 203.746 74.2553 203.697C70.1286 203.731 65.6193 202.378 64.3358 197.898C62.8568 192.736 65.8808 188.817 70.6948 187.547Z" fill="#8E0E22"></path>
<path d="M70.7585 142.563C76.767 142.043 85.3032 142.561 91.5452 142.405C98.1417 142.439 104.743 142.33 111.337 142.495C121.55 142.751 123.447 155.292 113.154 158.485C109.322 158.935 104.506 158.711 100.608 158.712C91.329 158.715 82.0485 158.815 72.7737 158.641C62.4172 158.446 60.5102 145.15 70.7585 142.563Z" fill="#8E0E22"></path>
</svg>