<svg width="55" height="55" viewBox="0 0 55 55" fill="none" xmlns="http://www.w3.org/2000/svg">
<path d="M55 27.5C53.6009 26.6373 52.0803 25.9516 50.4655 25.4816C53.1973 20.9637 54.7733 15.6716 54.7733 10.0035C54.7733 7.30494 54.4194 4.68379 53.7447 2.19536C53.6839 1.95204 53.612 1.70319 53.5346 1.45987C53.2913 1.38799 53.0424 1.31611 52.7991 1.24975C50.3107 0.580641 47.6951 0.221191 44.991 0.221191C39.3284 0.221191 34.0308 1.79719 29.5129 4.53448C29.0484 2.91976 28.3627 1.39905 27.5 0C26.6374 1.39353 25.9516 2.91976 25.4816 4.53448C20.9637 1.80272 15.6716 0.221191 10.0035 0.221191C7.29942 0.221191 4.68379 0.575111 2.19536 1.24975C1.95204 1.31611 1.70321 1.38799 1.45989 1.45987C1.38247 1.70319 1.31611 1.95204 1.24975 2.19536C0.580641 4.68379 0.221208 7.30494 0.221208 10.0035C0.221208 15.6716 1.79168 20.9637 4.53449 25.4816C2.91977 25.9516 1.39906 26.6373 0 27.5C1.39353 28.3626 2.91977 29.0484 4.53449 29.5129C1.79721 34.0308 0.221208 39.3284 0.221208 44.9909C0.221208 47.695 0.575111 50.3162 1.24975 52.7991C1.31611 53.0479 1.38247 53.2913 1.45989 53.5346C1.70321 53.612 1.95204 53.6784 2.19536 53.7447C4.68379 54.4138 7.29942 54.7733 10.0035 54.7733C15.6716 54.7733 20.9637 53.2028 25.4816 50.4655C25.9516 52.0802 26.6374 53.6009 27.5 55C28.3627 53.6065 29.0484 52.0802 29.5129 50.4655C34.0308 53.1973 39.3284 54.7733 44.991 54.7733C47.6951 54.7733 50.3107 54.4194 52.7991 53.7447C53.0424 53.6839 53.2913 53.612 53.5346 53.5346C53.612 53.2913 53.6784 53.0479 53.7447 52.7991C54.4139 50.3162 54.7733 47.695 54.7733 44.9909C54.7733 39.3284 53.2028 34.0308 50.4655 29.5129C52.0803 29.0484 53.6009 28.3626 55 27.5ZM52.5116 52.5116C44.5099 50.554 36.9782 47.3577 30.1322 43.144C29.8115 40.3901 28.8935 37.8187 27.5 35.5625C26.1065 37.8132 25.183 40.3846 24.8678 43.144C18.0218 47.3577 10.4901 50.554 2.48844 52.5116C4.44601 44.5098 7.64228 36.9782 11.8616 30.1322C14.6154 29.817 17.1868 28.8935 19.4375 27.5C17.1868 26.1065 14.6154 25.183 11.8616 24.8678C7.64228 18.0218 4.44601 10.4901 2.48844 2.48844C10.4901 4.44601 18.0274 7.64779 24.8678 11.8615C25.183 14.6154 26.1065 17.1868 27.5 19.443C28.8935 17.1923 29.8115 14.6209 30.1322 11.8615C36.9782 7.64779 44.5099 4.44601 52.5116 2.48844C50.554 10.4957 47.3577 18.0273 43.144 24.8678C40.3901 25.183 37.8187 26.1065 35.5626 27.5C37.8132 28.8935 40.3846 29.817 43.144 30.1322C47.3577 36.9782 50.554 44.5098 52.5116 52.5116Z" fill="black"/>
</svg>
